<?xml version="1.0" encoding="utf-8"?>
<!-- Generator: Adobe Illustrator 28.0.0, SVG Export Plug-In . SVG Version: 6.00 Build 0)  -->
<svg version="1.1" id="Слой_1" xmlns="http://www.w3.org/2000/svg" xmlns:xlink="http://www.w3.org/1999/xlink" x="0px" y="0px"
	 viewBox="0 0 1000 307.9990845" enable-background="new 0 0 1000 307.9990845" xml:space="preserve">
<g fill="#4BAF50">
	<path d="M300.8002625,107.2342834c-8.6434631-27.4937592-25.1195374-52.3816109-47.2680969-70.8006287
		c-11.2541046-8.805212-25.8403778-12.3991451-39.7951813-13.0280781c-2.6113739,0-5.4922943,0-8.0135803,0
		c-38.1741333,1.886797-73.9178467,19.8566189-104.0799789,42.4086304c-0.2695236,0.1796646-0.2695236,0.5390625,0,0.8086014
		c12.4254074,13.6567764,24.1292267,28.0328217,35.4734268,42.6783905c0.1802063,0.2695312,0.5406036,0.2695312,0.7208099,0.0893326
		c24.309433-17.4302216,49.6993103-33.5133209,76.9797516-46.0921249c0.2695312-0.0898705,0.5398407,0,0.7200317,0.2696037
		c8.6434937,16.8016777-20.1678925,44.025898-31.9625854,53.8191414
		c-26.3802032,21.564064-56.6316681,42.5882797-91.5644913,45.3737106
		c-6.3925171,0.5390472-12.8751373-0.2695312-18.9977417-1.7966156
		c-16.1162109-4.1330872-28.8109932-17.7906189-33.9430275-33.3341293
		c-2.5209694-7.9966202-2.5210457-16.6223984-0.9904137-24.7984467
		c2.8810616-14.8250046,10.3539391-29.1107941,20.7079544-41.6895981
		C82.286438,30.1442547,124.3325958,9.4790392,172.4108582,9.4790392s37.004364,3.2345333,53.3002472,8.9848719
		c0.180191-0.4492702,0.180191-0.2695312,0.4505005-0.9883327C205.9036255,6.8734164,183.0350189,0.9434065,160.2565308,0.0449187
		c-4.9524536,0-9.9942322-0.1796862-14.7657166,0.1797087C63.9191704,4.4475169-2.7064586,74.439682,0.0846145,156.3814392v0.180191
		v0.1794281c0,0.8085938,0.0000878,1.6172028,0.0901229,2.4257965c0,0.5390625,0,1.1682129,0,1.6171722
		c0,1.2583313,0.1801125,2.6059875,0.2701476,3.8635559c0,0.2695312-0.0001317,0.6291656,0.0899026,0.8986969
		c0,0.2695312-0.0000439,0.6291504,0.1800248,0.8986969c0,0,0,0.089325,0,0.1794128
		c2.3408976,41.0612183,24.579567,76.3713837,67.4360046,82.7508087
		c10.1742783,1.3476562,20.4380417,1.2575531,30.6116943,0.7184906
		c54.6509857-3.9528503,111.8232574-32.794281,146.3964539-75.2932434
		c15.4857483-19.5864716,26.9200439-43.3968811,28.3608704-68.5541916c0.1802063-1.7072906,0.0900879-3.4145813,0.1802063-5.0317688
		c0,0,0-0.0900955,0-0.1794357c0-0.180191,0.1794434,0,0.2695312,0c0.2702942,0.2695312,0.6307068,0.5390701,0.900238,0.8086014
		c17.4671631,19.2276077,28.2715454,43.8458633,30.7920532,69.6323166c0.7208252,0,0.5406189,0,1.2606506,0
		c2.6113586-21.6533966,0.6299133-43.8458481-5.9420166-64.6906509L300.8002625,107.2342834z"/>
	<path d="M142.2510529,287.603241c-39.2545776,0-75.5387573-12.1296997-105.0701752-32.794281
		c28.2709274,32.6148376,70.0472412,53.1901245,116.594574,53.1901245c72.5679016,0,133.4312134-50.1359558,149.8179321-117.5219116
		C274.2421875,247.9798126,213.0184937,287.603241,142.2510529,287.603241z"/>
</g>
<path fill="#4BAF50" d="M468.8689575,259.1405945c-65.8575745,0-75.1007385-30.0403137-75.1007385-50.2597351v-4.0438995
	c0-20.2194214,8.6654663-49.6820221,75.1007385-49.6820221h5.1992798c63.5467529,0,72.2122192,27.7295074,72.789917,41.5942383
	v0.577713l-1.1553955,1.1553955H500.642334l-0.5776978-0.5776978c-1.1553955-3.4661865-5.7769775-13.2870483-28.8848877-13.2870483
	c-23.6856384,0-30.0402832,11.5539551-30.0402832,21.3748322v1.1553955c0,9.8208618,5.1992798,21.9525146,30.0402832,21.9525146
	c24.2633057,0,27.7294922-9.8208618,28.8848877-13.8647461l1.1553955-0.5776978h44.4827271c0,0,1.1553955,0,1.1553955,1.1553955
	v1.7330933c0,13.8647614-8.6654663,41.5942688-72.789917,41.5942688H468.8689575z M653.1546021,221.0124969h-54.8812866
	c-1.1553955,0-1.1553955,0-1.1553955,1.1554108v34.6618652l-1.1553955,0.5776978h-43.3273926c0,0-1.1553955,0-1.1553955-1.1553955
	v-97.6309509l1.1553955-1.1553955h43.3273926l1.1553955,1.1553955v32.3510895c0,0,0,1.1553955,1.1553955,1.1553955h54.8812866
	l1.1553955-1.1553955v-32.3510895c0,0,0-1.1553955,1.1553955-1.1553955h42.7496948l1.1553955,1.1553955v98.2086487
	c0,0.5776978,0,1.1553955-1.1553955,1.1553955h-42.7496948c-0.5776978,0-1.1553955,0-1.1553955-1.1553955v-34.6618652
	l-1.1553955-0.577713V221.0124969z M814.9100342,243.5427246h-56.0366821l-1.1553955,0.5776978l-5.7770386,12.7093506
	l-1.1553955,0.5776978h-46.2158203c-1.1553955,0-1.7330933-0.5776978-1.1553955-1.1553955l50.2597046-98.2086639
	l1.1554565-1.1553955h65.8575439l1.1553955,1.1553955l53.7258911,98.2086639c0,0,0,1.7330933-1.1553345,1.7330933h-51.4151611
	l-1.1553955-1.155426l-5.7769775-12.1316376l-1.1553345-0.5776825L814.9100342,243.5427246z M801.0452881,214.6578369
	l-13.2871094-27.1518097c-0.5776367-1.1553955-2.310791-1.1553955-2.310791,0l-13.2869873,26.5741119
	c0,1.1553955,0,1.733078,1.1553345,1.733078h26.5740967c0.5776978,0,1.7331543-0.5776978,1.1553955-1.733078
	L801.0452881,214.6578369z M997.4625854,156.888031l0.5776978,1.1554108v27.7294922c0,0,0,1.1553955-1.1553955,1.1553955
	h-50.2597046c0,0-1.1553955,0-1.1553955,1.1554108v68.168335c0,0.5776978,0,1.155426-1.1553345,1.155426h-43.3273926
	c0,0-1.1553345,0-1.1553345-1.155426V188.083725c0-0.5776978,0-1.1553955-1.1553955-1.1553955H848.416626l-1.1553955-1.1554108
	v-27.7295074c0,0,0-1.1553955,1.1553955-1.1553955h148.4683838L997.4625854,156.888031z M470.6020508,78.3211136
	c23.6856079,0,28.3071899,9.8208618,28.8848877,13.2870483l1.7330933,0.5776978h44.4827271c0,0,1.1553955,0,1.1553955-1.1553879
	c0-15.0201492-8.6654663-42.1719551-72.789917-42.1719551h-5.1992798c-66.4352722,0-75.1007385,28.8848991-75.1007385,49.6820259
	v4.0438843c0,20.219429,9.8208618,50.2597198,75.1007385,50.2597198h5.1992798
	c14.4424438,0,26.5740967-3.4661865,35.8172607-8.6654663c9.8208618-5.1992798,1.7330933,0,1.7330933,1.1553955v4.621582
	l1.1553955,1.1553955h32.3510742l1.1553955-1.1553955V95.0743561h-65.8575439l-1.1553955,1.1553955v16.1755371l1.1553955,1.1553955
	h15.0201416c1.1553955,0,1.7330933,1.1553955,1.1553955,1.7331009c-3.4661865,4.0438843-10.9762573,7.5100708-25.4187012,7.5100708
	c-24.8410034,0-30.0402832-12.1316528-30.0402832-21.9525223v-1.7330933
	C441.1394653,89.2973709,445.7610474,78.3211136,470.6020508,78.3211136z M999.7733765,149.3779602l-47.9489746-98.2086487
	l-1.1553345-0.5776978h-58.9252319l-0.5776978,0.5776978l-42.171936,90.6985626V95.0743561h-63.546814l-1.1553345,1.1553955
	v16.1755371l1.1553345,1.1553955h14.4424438c1.1553955,0,1.7331543,1.1553955,1.1553955,1.7331009
	c-3.4661865,4.0438843-10.3985596,7.5100708-24.8410034,7.5100708c-23.6856079,0-28.8849487-12.1316528-28.8849487-21.9525223
	v-1.1553955c0-10.3985672,4.621582-21.3748245,28.8849487-21.3748245c23.6856079,0,27.1517334,9.8208618,27.7294922,13.287056
	l1.1553955,0.5776978h43.3273315c0,0,1.1553955,0,1.1553955-1.1553955c0-14.4424438-8.6654663-42.1719475-70.479126-42.1719475
	h-4.6216431c-64.1243896-0.0000076-72.789856,28.8848915-72.789856,49.6820183v4.0438843
	c0,20.219429,9.2431641,50.2597198,72.789978,50.2597198h4.621582c12.1126709,0.1896515,24.0635376-2.7980652,34.6618652-8.6654663
	c0.5776978,0,1.7331543,0,1.7331543,1.1553955v4.621582c0,0.5776978,0,1.1553955,1.1553345,1.1553955h71.0568237
	l0.5776978-0.5776978l5.7769775-12.7093506l0.5776978-0.577713h51.9927979l5.7769775,13.2870483h46.2158813
	C999.7733154,150.5333405,1000.3510742,150.5333405,999.7733765,149.3779602z M932.1827393,109.5167999h-23.1079102
	c-1.1553955,0-1.7330933-1.1553955-1.1553955-1.7330933l11.5539551-27.1518021h1.7330933l12.1316528,27.1518021
	C933.3381348,108.3614044,933.3381348,109.5167999,932.1827393,109.5167999z M699.3704224,78.8988113V51.7470055
	c0-0.5776978,0-1.1553955-1.1553955-1.1553955h-145.579895l-1.1553955,1.1553955v27.1518059l1.1553955,1.1553955h49.1043701
	l1.1553955,1.1553955v39.2834549c0,0.5777054,0,1.1553955-1.1553955,1.1553955h-49.1043701l-1.1553955,1.1553955v27.1518097
	l1.1553955,1.1553955h145.579895c0.5776978,0,1.1553955,0,1.1553955-1.1553955v-27.1518021
	c0-0.5776978,0-1.1553955-1.1553955-1.1553955h-48.5266113c-0.5776978,0-1.1553955,0-1.1553955-1.1553955V81.2096024
	c0,0,0-1.1553955,1.1553955-1.1553955h48.5266724C698.7927246,80.0542068,699.3704834,80.0542068,699.3704224,78.8988113z"/>
</svg>
